<svg width="24" height="24" viewBox="0 0 24 24" fill="none" xmlns="http://www.w3.org/2000/svg">
<path d="M20.1601 5.00001C19.1001 3.93722 17.6949 3.28855 16.1984 3.17118C14.702 3.05381 13.2128 3.47548 12.0001 4.36001C10.7277 3.41365 9.14408 2.98452 7.56801 3.15905C5.99193 3.33358 4.54052 4.09879 3.50606 5.3006C2.47159 6.5024 1.93091 8.05153 1.99289 9.63603C2.05486 11.2205 2.7149 12.7227 3.84008 13.84L10.0501 20.06C10.5701 20.5718 11.2705 20.8586 12.0001 20.8586C12.7297 20.8586 13.4301 20.5718 13.9501 20.06L20.1601 13.84C21.3277 12.6653 21.983 11.0763 21.983 9.42001C21.983 7.76374 21.3277 6.17475 20.1601 5.00001ZM18.7501 12.46L12.5401 18.67C12.4694 18.7414 12.3853 18.798 12.2926 18.8367C12.1999 18.8753 12.1005 18.8952 12.0001 18.8952C11.8997 18.8952 11.8002 18.8753 11.7075 18.8367C11.6149 18.798 11.5308 18.7414 11.4601 18.67L5.25008 12.43C4.46584 11.6284 4.0267 10.5515 4.0267 9.43001C4.0267 8.30855 4.46584 7.23167 5.25008 6.43001C6.04924 5.641 7.12706 5.19858 8.25008 5.19858C9.37311 5.19858 10.4509 5.641 11.2501 6.43001C11.343 6.52374 11.4536 6.59814 11.5755 6.6489C11.6974 6.69967 11.8281 6.72581 11.9601 6.72581C12.0921 6.72581 12.2228 6.69967 12.3447 6.6489C12.4665 6.59814 12.5771 6.52374 12.6701 6.43001C13.4692 5.641 14.5471 5.19858 15.6701 5.19858C16.7931 5.19858 17.8709 5.641 18.6701 6.43001C19.4651 7.22116 19.9187 8.2922 19.9336 9.4137C19.9486 10.5352 19.5237 11.6179 18.7501 12.43V12.46Z" fill="white"/>
</svg>
